<?xml version="1.0" encoding="utf-8"?>
<!-- Generator: Adobe Illustrator 28.3.0, SVG Export Plug-In . SVG Version: 6.00 Build 0)  -->
<svg version="1.1" id="Layer_1" xmlns="http://www.w3.org/2000/svg" xmlns:xlink="http://www.w3.org/1999/xlink" x="0px" y="0px"
	 viewBox="0 0 85.04 85.04" style="enable-background:new 0 0 85.04 85.04;" xml:space="preserve">
<style type="text/css">
	.st0{fill:#FFFFFF;stroke:#FFFFFF;stroke-miterlimit:10;}
</style>
<path class="st0" d="M41.29,5.57C20,5.57,2.74,22.83,2.74,44.13c0,21.29,17.26,38.55,38.55,38.55c21.29,0,38.55-17.26,38.55-38.55
	C79.84,22.83,62.58,5.57,41.29,5.57z M37.33,75.21c-11.75-2.07-26.24-13.6-26.24-30.51c0-2.5,0.3-4.94,0.86-7.27l0,0L29.6,55.25
	L29.35,55c-1.16,8.76,1.97,11.24,8.12,11.81L37.33,75.21z M65.06,65.14l-0.28,0.31l-0.92-2.02c-1.15-2.52-3.65-4.13-6.42-4.13h-4.39
	v-11.1c0-2.71-2.2-4.91-4.91-4.91H25.98v-7.51h6.97c2.49,0,4.51-2.02,4.51-4.51V24h8.72c3.8,0,6.87-3.08,6.87-6.87v-1.22l0,0
	C64.61,20.36,72.8,31.57,72.8,44.7C72.8,52.54,69.88,59.7,65.06,65.14z"/>
</svg>
