<?xml version="1.0" encoding="utf-8"?>
<!-- Generator: Adobe Illustrator 28.3.0, SVG Export Plug-In . SVG Version: 6.00 Build 0)  -->
<svg version="1.1" id="Layer_1" xmlns="http://www.w3.org/2000/svg" xmlns:xlink="http://www.w3.org/1999/xlink" x="0px" y="0px"
	 viewBox="0 0 85.04 85.04" style="enable-background:new 0 0 85.04 85.04;" xml:space="preserve">
<style type="text/css">
	.st0{fill:#FFFFFF;stroke:#FFFFFF;stroke-miterlimit:10;}
</style>
<path class="st0" d="M75.26,7.41H11.63c-5.29,0-9.57,4.29-9.57,9.57v47.41c0,5.29,4.29,9.57,9.57,9.57h63.63
	c5.29,0,9.57-4.29,9.57-9.57V16.98C84.84,11.69,80.55,7.41,75.26,7.41z M75.56,22.68l-29.9,16.47c-1.73,0.95-3.84,0.92-5.54-0.1
	L10.12,21.09c-0.32-0.19-0.54-0.53-0.58-0.9c-1.26-2.34,0.35-5.6,4.22-4.7l26.69,16.98c1.31,0.83,2.97,0.86,4.3,0.07l27.88-16.48
	l0.13,0.06C76.66,14.5,80.24,19.46,75.56,22.68z"/>
</svg>
