<?xml version="1.0" encoding="utf-8"?>
<!-- Generator: Adobe Illustrator 28.3.0, SVG Export Plug-In . SVG Version: 6.00 Build 0)  -->
<svg version="1.1" id="Layer_1" xmlns="http://www.w3.org/2000/svg" xmlns:xlink="http://www.w3.org/1999/xlink" x="0px" y="0px"
	 viewBox="0 0 85.04 85.04" style="enable-background:new 0 0 85.04 85.04;" xml:space="preserve">
<style type="text/css">
	.st0{fill:#FFFFFF;stroke:#FFFFFF;stroke-miterlimit:10;}
</style>
<path class="st0" d="M42.26,59.34L22.64,40.06c-1.95-1.92-1.96-5.07-0.01-6.99l4.36-4.31c0.46-0.46,0.83-1,1.09-1.59l0,0
	c0.73-1.7,0.97-3.56,0.69-5.39l-1.58-10.24c-0.55-3.55-3.32-6.33-6.87-6.89l0,0c-0.81-0.13-1.64-0.06-2.41,0.19L7.53,8.19
	c-1.49,0.48-2.59,1.76-2.86,3.3l0,0c-0.15,0.9-0.16,1.82-0.02,2.72L7,28.99c0.8,3.75,2.31,7.31,4.43,10.51l7.87,12.44
	c4.7,5.51,9.9,9.2,15,14.11l8.57,5.36c1.52,0.95,3.19,1.63,4.95,2.02l14.17,4.33c2.1,0.46,10.21,0.42,12.38-0.76l2.46-1.98
	c1.99-2.19,1.7-5.23,1.7-8.19V61.2c0-0.65-0.35-1.59-0.78-2.08l0,0c-1.81-2.09-5.53-4.02-8.28-4.3L61.34,54
	c-2.06-0.21-4.97,0.4-6.54,1.75l-3.84,3.66C48.52,61.74,44.67,61.71,42.26,59.34z"/>
</svg>
